# xmcd CD database file
#
# Track frame offsets:
#	150
#	21960
#	39978
#	53978
#	71545
#	89130
#	109095
#	126048
#	147843
#
# Disc length: 2267 seconds
#
# Revision: 0
# Processed by: cddbd v1.5.2PL0 Copyright (c) Steve Scherf et al.
# Submitted via: CDex 1.70beta2
#
DISCID=7d08d909
DTITLE=Luca Carboni - In tanto Dustin Hoffman non sbaglia un film
DYEAR=1984
DGENRE=Blues
TTITLE0=CI STIAMO SBAGLIANDO
TTITLE1=AMANDO LE DONNE
TTITLE2=LI VEDI
TTITLE3=FRAGOLE BUONE BUONE
TTITLE4=QUESTA SERA
TTITLE5=MA CHE AMORE INCREDIBILE
TTITLE6=NINNA NANNA
TTITLE7="L'AVVENIRE" CARBONI
TTITLE8=GIOVANNI DISPONIBILI
EXTD=YEAR: 1984
EXTT0=
EXTT1=
EXTT2=
EXTT3=
EXTT4=
EXTT5=
EXTT6=
EXTT7=
EXTT8=
PLAYORDER=
